<svg width="393" height="400" viewBox="0 0 393 400" fill="none" xmlns="http://www.w3.org/2000/svg">
<path d="M295.704 53.8612C233.127 -15.7102 146.069 -18.5529 82.5559 49.2329C48.9812 85.0671 22.9521 139.89 27.688 223.364C29.3616 252.89 34.0201 277.112 40.8166 296.941C68.3442 377.326 181.407 374.23 187.686 374.219C191.754 374.213 195.822 374.344 199.89 374.612C214.14 375.556 228.314 378.14 242.277 382.342C262.186 388.327 287.531 391.334 310.176 379.998C314.024 378.081 317.762 375.737 321.358 372.985C333.803 363.447 347.733 354.331 355.878 331.706C361.998 314.726 366.457 293.435 368.603 266.916C376.413 170.338 337.386 100.203 295.704 53.8612Z" fill="black"/>
<path d="M200.157 400C298.981 400 379.095 389.153 379.095 375.773C379.095 362.393 298.981 351.546 200.157 351.546C101.332 351.546 21.2185 362.393 21.2185 375.773C21.2185 389.153 101.332 400 200.157 400Z" fill="#FDFDFD"/>
<path opacity="0.1" d="M191.416 387.185C283.331 387.185 357.842 382.094 357.842 375.813C357.842 369.533 283.331 364.441 191.416 364.441C99.5009 364.441 24.9893 369.533 24.9893 375.813C24.9893 382.094 99.5009 387.185 191.416 387.185Z" fill="black"/>
<path d="M283.49 51.2729V78.4533H258.957V374.876H310.157V89.7364V78.4533V51.2729H283.49Z" fill="#8C8EB4"/>
<path d="M148.37 233.89V187.222H117.081V233.89H105.348V375.434H159.748V233.89H148.37Z" fill="#8C8EB4"/>
<path d="M153.704 309.79H111.393V375.946H153.704V309.79Z" fill="#FDFDFD"/>
<path opacity="0.1" d="M118.149 309.79H111.393V375.946H118.149V309.79Z" fill="black"/>
<path d="M240.814 36.4126V52.3106H178.236V36.4126H159.747V375.912H258.947V36.4126H240.814Z" fill="#FDFDFD"/>
<path opacity="0.1" d="M254.685 36.4131H240.818V52.3111H254.685V36.4131Z" fill="black"/>
<path opacity="0.1" d="M173.614 36.4131H159.747V375.912H173.614V36.4131Z" fill="black"/>
<path d="M88.9999 133.367V120.545H79.7555V133.367H63.0439V375.941H105.355V133.367H88.9999Z" fill="#FDFDFD"/>
<path opacity="0.1" d="M84.7305 120.545H79.7527V133.366H84.7305V120.545Z" fill="black"/>
<path opacity="0.1" d="M68.022 133.34H63.0442V375.912H68.022V133.34Z" fill="black"/>
<path opacity="0.1" d="M254.685 167.204H240.818V375.93H254.685V167.204Z" fill="black"/>
<path opacity="0.1" d="M105.357 133.34H92.5566V177.957H105.357V133.34Z" fill="black"/>
<path d="M194.958 79.4824H175.047V91.7906H194.958V79.4824Z" fill="#8186ED"/>
<path d="M237.263 206.183H217.352V218.491H237.263V206.183Z" fill="#8186ED"/>
<path d="M194.958 294.867H175.047V307.175H194.958V294.867Z" fill="#8186ED"/>
<path d="M94.327 188.738H74.4158V201.046H94.327V188.738Z" fill="#8186ED"/>
<path d="M142.681 316.963H122.769V329.271H142.681V316.963Z" fill="#8186ED"/>
<path opacity="0.1" d="M149.804 244.637H115.671V265.15H149.804V244.637Z" fill="black"/>
<path opacity="0.1" d="M299.137 102.098H265.003V122.612H299.137V102.098Z" fill="black"/>
<path opacity="0.1" d="M299.137 145.669H265.003V166.183H299.137V145.669Z" fill="black"/>
<path opacity="0.1" d="M299.137 189.24H265.003V209.754H299.137V189.24Z" fill="black"/>
<path opacity="0.1" d="M299.137 232.829H265.003V253.343H299.137V232.829Z" fill="black"/>
<path opacity="0.1" d="M299.137 276.461H265.003V296.975H299.137V276.461Z" fill="black"/>
<path opacity="0.1" d="M299.137 320.03H265.003V340.544H299.137V320.03Z" fill="black"/>
<path d="M321.882 194.892V138.992H296.992V194.892H288.104V375.925H330.415V194.892H321.882Z" fill="#FDFDFD"/>
<path opacity="0.1" d="M304.827 138.993H297.004V194.892H304.827V138.993Z" fill="black"/>
<path opacity="0.1" d="M295.926 194.914H288.104V375.947H295.926V194.914Z" fill="black"/>
<path opacity="0.1" d="M330.424 285.647H309.446V303.597H330.424V285.647Z" fill="black"/>
<path d="M330.06 258.978H310.149V271.286H330.06V258.978Z" fill="#8186ED"/>
<path d="M392.384 271.421C392.384 317.111 373.552 333.064 350.322 333.064C327.093 333.064 308.261 317.111 308.261 271.421C308.261 225.731 350.322 167.607 350.322 167.607C350.322 167.607 392.384 225.731 392.384 271.421Z" fill="#52FF00"/>
<path d="M348.802 326.075L349.233 287.837L367.16 240.531L349.3 281.838L349.494 264.645L361.849 230.419L349.545 260.096L349.894 229.172L363.124 201.924L349.948 224.31L350.166 167.607L348.798 242.671L348.911 239.574L335.459 209.876L348.695 245.519L347.441 280.055L347.404 279.138L331.897 247.884L347.357 282.376L347.2 286.696L347.172 286.76L347.185 287.115L344.006 374.736H348.254L348.764 329.478L364.186 295.071L348.802 326.075Z" fill="#FDFDFD"/>
<path d="M84.1225 271.944C84.1225 317.634 65.2911 333.587 42.0613 333.587C18.8315 333.587 0 317.634 0 271.944C0 226.255 42.0613 168.13 42.0613 168.13C42.0613 168.13 84.1225 226.255 84.1225 271.944Z" fill="#52FF00"/>
<path d="M40.52 326.598L40.9506 288.36L58.8783 241.054L41.0185 282.361L41.212 265.168L53.5673 230.942L41.2634 260.618V260.619L41.6116 229.695L54.8422 202.447L41.6664 224.833L41.8841 168.13L40.5161 243.193L40.6286 240.097L27.1769 210.398L40.4128 246.041L39.1597 280.577L39.1224 279.661L23.615 248.407L39.0753 282.899L38.9187 287.218L38.8906 287.283L38.9032 287.637L35.7234 375.258H39.972L40.4817 330L55.9042 295.594L40.52 326.598Z" fill="#FDFDFD"/>
</svg>
